<?xml version="1.0" standalone="no"?>
<!DOCTYPE svg PUBLIC "-//W3C//DTD SVG 20010904//EN"
 "http://www.w3.org/TR/2001/REC-SVG-20010904/DTD/svg10.dtd">
<svg version="1.0" xmlns="http://www.w3.org/2000/svg"
 width="371.000000pt" height="371.000000pt" viewBox="0 0 371.000000 371.000000"
 preserveAspectRatio="xMidYMid meet">
<metadata>
Created by potrace 1.14, written by Peter Selinger 2001-2017
</metadata>
<g transform="translate(0.000000,371.000000) scale(0.100000,-0.100000)"
fill="#000000" stroke="none">
<path d="M646 3243 c-3 -16 -58 -309 -121 -653 -64 -344 -157 -843 -206 -1110
-50 -267 -105 -568 -124 -670 -19 -102 -41 -221 -50 -265 -8 -44 -15 -86 -15
-92 0 -10 300 -13 1464 -13 l1464 0 6 27 c5 24 372 2002 452 2433 13 74 33
181 44 238 11 57 20 110 20 118 0 12 -132 14 -1015 14 -654 0 -1015 -4 -1015
-10 0 -10 -136 -755 -145 -797 l-5 -23 650 0 c582 0 650 -2 650 -16 0 -8 -5
-46 -11 -85 l-12 -69 -653 0 -654 0 -5 -22 c-7 -32 -135 -724 -142 -770 l-6
-38 653 0 652 0 -7 -37 c-3 -21 -11 -59 -17 -85 l-10 -48 -739 0 c-697 0 -739
1 -739 18 0 9 6 51 14 92 8 41 35 185 60 320 25 135 99 537 166 895 66 357
120 655 120 662 0 10 -76 13 -359 13 l-359 0 -6 -27z"/>
</g>
</svg>
